<?xml version="1.0" encoding="utf-8"?>
<!-- Generator: Adobe Illustrator 25.2.0, SVG Export Plug-In . SVG Version: 6.00 Build 0)  -->
<svg version="1.1" id="Livello_1" xmlns="http://www.w3.org/2000/svg" xmlns:xlink="http://www.w3.org/1999/xlink" x="0px" y="0px"
	 viewBox="0 0 253 60" style="enable-background:new 0 0 253 60;" xml:space="preserve">
<style type="text/css">
	.st0{fill:#1C1C1A;}
	.st1{fill:#AF0061;}
	.st2{fill:#BBBBBB;}
</style>
<g>
	<path class="st0" d="M90.2,54C82.6,53.9,79,53,76.8,51.4c-2.2-1.6-3.3-4.2-3.3-7.8c0-2.1,0.3-4.9,0.9-8.4l2.1-10.7
		c0.7-3.7,1.7-6.8,2.9-9.2c1.2-2.4,2.7-4.2,4.6-5.6c1.8-1.3,4-2.3,6.5-2.8c2.5-0.5,5.6-0.8,9.2-0.8c3.2,0,5.7,0.1,7.5,0.2
		c1.8,0.1,3.4,0.5,4.8,1c1.4,0.5,2.5,1.4,3.2,2.7c0.8,1.2,1.2,2.9,1.2,5.1c0,1.3-0.1,2.9-0.4,4.6l-0.5,2.6h-9l0.5-2.6
		c0.2-1,0.3-1.7,0.3-2.4c0-1.5-0.7-2.4-1.9-2.8c-1.3-0.4-3.7-0.6-7.2-0.6c-2.5,0-4.4,0.1-5.7,0.4c-1.4,0.3-2.5,0.8-3.3,1.5
		c-0.9,0.7-1.6,1.8-2.1,3.1c-0.5,1.4-1.1,3.2-1.6,5.7l-2,10.4c-0.5,2.8-0.8,4.8-0.8,6.1c0,2,0.7,3.3,2,4c1.3,0.7,3.7,1,7.2,1
		c2.2,0,3.3-0.1,4.5-0.2c1.2-0.1,2.3-0.3,3.2-0.7c0.9-0.4,1.7-1,2.2-1.9c0.6-0.9,1.1-2.2,1.4-3.9l0.5-2.6h9l-0.6,3.1
		c-0.6,3.2-1.5,5.8-2.6,7.7c-1.2,1.9-2.6,3.4-4.2,4.2c-1.7,0.9-3.5,1.4-5.4,1.7c-2,0.3-4.7,0.5-8.4,0.4"/>
	<path class="st0" d="M159.5,53.8h-7.9l6-30.6c0.3-1.4,1.6-2.5,3-2.5h5.4L159.5,53.8z"/>
	<path class="st0" d="M197.9,43c-0.5,2.5-1.3,4.5-2.3,6c-1,1.5-2.3,2.6-3.7,3.3c-1.5,0.7-3.1,1.1-4.9,1.3c-1.8,0.2-4.1,0.3-6.9,0.3
		c-4.7,0-8-0.6-9.9-1.9c-1.9-1.3-2.9-3.5-2.9-6.7c0-2,0.4-4.7,1.1-8.2c0.7-3.2,1.4-5.9,2.2-7.9c0.8-2.1,1.9-3.8,3.2-5.1
		c1.3-1.3,3.1-2.3,5.2-3c2.1-0.7,4.9-1,8.2-1c4.9,0,8.3,0.6,10.2,1.8c1.9,1.2,2.8,3.4,2.8,6.5c0,2.2-0.5,5.6-1.5,10.1h-22.8
		c-0.6,2.8-0.9,4.6-0.9,5.6c0,1.4,0.4,2.4,1.3,2.9c0.9,0.6,2.5,0.9,4.9,0.9c2.7,0,4.7-0.3,6-0.8c1.2-0.5,2.1-1.9,2.6-4.1H197.9z
		 M192,33c0.4-1.9,0.6-2.9,0.6-3.7c0-1.3-0.4-2.2-1.3-2.6c-0.9-0.4-2.6-0.6-5.2-0.6c-1.8,0-3.2,0.1-4.2,0.3c-1,0.2-1.8,0.6-2.4,1.1
		c-0.6,0.5-1,1.2-1.4,2.1c-0.3,0.9-0.7,1.7-1,3.4H192z"/>
	<path class="st0" d="M227.2,30c0.1-0.6,0.5-1.7,0.5-2.1c0-0.7-0.3-1.1-1.1-1.4c-0.8-0.3-2.3-0.4-4.5-0.5c-2.6,0-4.6,0.2-5.8,0.6
		c-1.2,0.4-2.1,0.9-2.6,2.9c-0.1,0.6-0.2,1.1-0.2,1.5c0,0.9,0.4,1.5,1.3,1.7c0.9,0.3,2.9,0.5,5.9,0.7l1.7,0.1c2,0.1,3.6,0.3,4.8,0.4
		c1.2,0.1,2.2,0.5,3.3,0.9c1,0.5,1.8,1.2,2.4,2.1c0.6,0.9,0.8,2.2,0.8,3.7c0,1.1-0.2,2.3-0.6,3.7c-0.5,2.2-1.4,3.9-2.5,5.2
		c-1.1,1.3-2.5,2.3-4,3c-1.6,0.7-3.3,1.1-5.1,1.3c-1.8,0.2-4,0.2-6.5,0.2c-2.5,0-4.5-0.1-5.9-0.2c-1.4-0.1-2.7-0.4-3.9-0.8
		c-1.1-0.4-2-1.2-2.6-2.1c-0.6-1-0.9-2.3-0.8-3.9c0-1.1,0.4-2.4,0.8-3.9l8,0c-0.2,1-0.5,1.8-0.5,2.4c0,0.9,0.4,1.4,1.2,1.8
		c0.8,0.4,2.5,0.6,5,0.6c2.9,0.1,5-0.2,6.2-0.6c1.2-0.5,2-1,2.5-3c0.2-0.8,0.3-1.4,0.3-1.8c0-0.9-0.5-1.6-1.5-2.1
		c-1-0.4-3-0.7-6-0.8c-5-0.2-8.4-0.7-10.2-1.5c-1.8-0.8-2.7-2.4-2.6-4.7c0-1.1,0.3-2.6,0.8-4.5c0.5-2.2,1.4-3.9,2.4-5.2
		c1.1-1.3,2.3-2.2,3.8-2.7c1.5-0.5,3.1-0.9,4.8-1c1.7-0.1,3.9-0.2,6.5-0.1c2,0,3.6,0.1,4.9,0.2c1.3,0.1,2.6,0.4,3.8,0.9
		c1.2,0.4,2.1,1.1,2.8,2.1c0.7,0.9,1,2.2,1,3.8c0,0.9-0.5,2.2-0.7,3.2L227.2,30z"/>
	<path class="st0" d="M243.8,53.8h-7.9l6-30.5c0.3-1.5,1.6-2.6,3.2-2.6h5.3L243.8,53.8z"/>
	<path class="st0" d="M137.8,53.8h7.8l4.1-21.5c0.3-1.8,0.5-3.7,0.5-5c0-2.4-1.3-3.9-2.8-5c-1.5-1.1-4.8-1.8-8.1-1.8
		c-2.8,0-6.4-0.3-9.8,1.8l3.2-16.2h-4.8c-1.8,0-3.4,1.3-3.7,3.1l-8.7,44.7h7.9l4.7-24c1.2-4.6,9.8-3.4,11.2-3.3
		c2.9,0.1,3.4,2.7,3.2,3.7"/>
	<g>
		<path class="st1" d="M67.5,29.8L53.8,6l-5.9,10.3l4.8,8.3H40c1.6,1.4,2.6,3.3,2.6,5.5c0,2.1-1,4-2.6,5.4h12.5l-4.7,8.2L53.7,54
			l13.7-23.8C67.5,30.1,67.5,29.9,67.5,29.8"/>
		<path class="st2" d="M44.5,49.4L44.5,49.4l-22.4,0L10.9,30l11.2-19.4h22.4l0,0l5.9-10.3h-31c-2,0-3.8,1.1-4.8,2.8l-13.9,24
			c-1,1.7-1,3.9,0,5.6l13.9,24.1c1,1.7,2.8,2.7,4.7,2.7h31L44.5,49.4z"/>
		<path class="st1" d="M38.4,30.1c0,2.8-2.2,5-5,5c-2.8,0-5-2.2-5-5s2.2-5,5-5C36.1,25.1,38.4,27.3,38.4,30.1"/>
	</g>
	<path class="st0" d="M168.5,10.4c0.1,2.3-1.9,4.4-4.3,4.6c-2.4,0.2-4.5-1.4-4.5-3.8c-0.1-2.3,1.9-4.4,4.3-4.6
		C166.5,6.3,168.5,8,168.5,10.4"/>
	<path class="st0" d="M253,10.3c0.1,2.3-1.9,4.4-4.3,4.6c-2.4,0.2-4.5-1.4-4.5-3.8c-0.1-2.3,1.9-4.4,4.3-4.6
		C250.9,6.3,252.9,8,253,10.3"/>
</g>
</svg>
