<?xml version="1.0" encoding="UTF-8" standalone="no"?>
<!DOCTYPE svg PUBLIC "-//W3C//DTD SVG 1.1//EN" "http://www.w3.org/Graphics/SVG/1.1/DTD/svg11.dtd">
<svg width="100%" height="100%" viewBox="0 0 3235 1091" version="1.1" xmlns="http://www.w3.org/2000/svg" xmlns:xlink="http://www.w3.org/1999/xlink" xml:space="preserve" xmlns:serif="http://www.serif.com/" style="fill-rule:evenodd;clip-rule:evenodd;stroke-linecap:round;stroke-linejoin:round;stroke-miterlimit:1.5;">
    <g transform="matrix(1,0,0,1,-16.5592,413.979)">
        <path d="M946.851,324.503C893.587,324.503 850.412,307.729 817.324,274.18C784.236,240.631 767.692,195.957 767.692,140.157L767.692,129.781C767.692,92.427 774.898,59.051 789.309,29.653C803.72,0.254 823.953,-22.631 850.008,-39.002C876.063,-55.373 905.116,-63.558 937.166,-63.558C988.124,-63.558 1027.5,-47.302 1055.28,-14.791C1083.06,17.72 1096.96,63.72 1096.96,123.209L1096.96,157.104L852.429,157.104C854.966,188.002 865.284,212.443 883.384,230.428C901.485,248.413 924.254,257.405 951.693,257.405C990.199,257.405 1021.56,241.841 1045.77,210.713L1091.08,253.947C1076.09,276.313 1056.09,293.664 1031.07,306C1006.05,318.335 977.979,324.503 946.851,324.503ZM936.821,3.886C913.763,3.886 895.144,11.956 880.963,28.096C866.783,44.237 857.733,66.718 853.813,95.54L1013.95,95.54L1013.95,89.315C1012.1,61.184 1004.61,39.913 991.467,25.502C978.324,11.091 960.109,3.886 936.821,3.886Z" style="fill:rgb(156,158,159);fill-rule:nonzero;"/>
        <path d="M1388.87,280.924C1364.19,309.977 1329.15,324.503 1283.72,324.503C1243.14,324.503 1212.42,312.629 1191.55,288.879C1170.68,265.13 1160.25,230.774 1160.25,185.811L1160.25,-56.641L1244.3,-56.641L1244.3,184.774C1244.3,232.272 1264.01,256.022 1303.44,256.022C1344.25,256.022 1371.81,241.38 1386.1,212.097L1386.1,-56.641L1470.15,-56.641L1470.15,317.586L1390.94,317.586L1388.87,280.924Z" style="fill:rgb(156,158,159);fill-rule:nonzero;"/>
        <path d="M1751.68,20.141C1740.61,18.297 1729.2,17.374 1717.44,17.374C1678.93,17.374 1652.99,32.131 1639.62,61.645L1639.62,317.586L1555.58,317.586L1555.58,-56.641L1635.82,-56.641L1637.89,-14.791C1658.18,-47.302 1686.31,-63.558 1722.28,-63.558C1734.27,-63.558 1744.19,-61.944 1752.03,-58.716L1751.68,20.141Z" style="fill:rgb(156,158,159);fill-rule:nonzero;"/>
        <path d="M1776.58,127.014C1776.58,90.352 1783.85,57.322 1798.37,27.923C1812.9,-1.475 1833.31,-24.072 1859.59,-39.866C1885.88,-55.661 1916.08,-63.558 1950.21,-63.558C2000.7,-63.558 2041.69,-47.302 2073.16,-14.791C2104.64,17.72 2121.64,60.838 2124.18,114.563L2124.52,134.277C2124.52,171.169 2117.43,204.142 2103.25,233.195C2089.07,262.248 2068.78,284.729 2042.38,300.639C2015.98,316.548 1985.49,324.503 1950.9,324.503C1898.1,324.503 1855.84,306.922 1824.14,271.759C1792.43,236.596 1776.58,189.731 1776.58,131.164L1776.58,127.014ZM1860.63,134.277C1860.63,172.784 1868.58,202.932 1884.49,224.721C1900.4,246.511 1922.54,257.405 1950.9,257.405C1979.26,257.405 2001.34,246.338 2017.13,224.202C2032.93,202.067 2040.82,169.671 2040.82,127.014C2040.82,89.199 2032.7,59.224 2016.44,37.089C2000.18,14.953 1978.11,3.886 1950.21,3.886C1922.77,3.886 1900.98,14.78 1884.84,36.57C1868.7,58.36 1860.63,90.929 1860.63,134.277Z" style="fill:rgb(156,158,159);fill-rule:nonzero;"/>
        <path d="M2523.31,134.277C2523.31,192.152 2510.16,238.325 2483.88,272.796C2457.59,307.268 2422.31,324.503 2378.04,324.503C2337,324.503 2304.14,311.015 2279.47,284.037L2279.47,461.466L2195.43,461.466L2195.43,-56.641L2272.9,-56.641L2276.36,-18.596C2301.03,-48.571 2334.58,-63.558 2377.01,-63.558C2422.66,-63.558 2458.46,-46.553 2484.4,-12.543C2510.34,21.467 2523.31,68.678 2523.31,129.089L2523.31,134.277ZM2439.61,127.014C2439.61,89.66 2432.17,60.031 2417.3,38.126C2402.43,16.222 2381.16,5.269 2353.49,5.269C2319.13,5.269 2294.46,19.45 2279.47,47.811L2279.47,213.826C2294.69,242.879 2319.59,257.405 2354.18,257.405C2380.93,257.405 2401.85,246.626 2416.95,225.067C2432.06,203.508 2439.61,170.824 2439.61,127.014Z" style="fill:rgb(156,158,159);fill-rule:nonzero;"/>
        <path d="M2683.79,317.586L2599.74,317.586L2599.74,-56.641L2683.79,-56.641L2683.79,317.586ZM2594.56,-153.829C2594.56,-166.741 2598.65,-177.463 2606.83,-185.995C2615.02,-194.526 2626.72,-198.792 2641.94,-198.792C2657.16,-198.792 2668.92,-194.526 2677.22,-185.995C2685.52,-177.463 2689.67,-166.741 2689.67,-153.829C2689.67,-141.147 2685.52,-130.598 2677.22,-122.182C2668.92,-113.766 2657.16,-109.558 2641.94,-109.558C2626.72,-109.558 2615.02,-113.766 2606.83,-122.182C2598.65,-130.598 2594.56,-141.147 2594.56,-153.829Z" style="fill:rgb(156,158,159);fill-rule:nonzero;"/>
        <path d="M2853.26,-56.641L2855.68,-13.408C2883.35,-46.841 2919.67,-63.558 2964.63,-63.558C3042.57,-63.558 3082.23,-18.941 3083.61,70.292L3083.61,317.586L2999.57,317.586L2999.57,75.134C2999.57,51.385 2994.43,33.803 2984.17,22.39C2973.91,10.976 2957.14,5.269 2933.85,5.269C2899.95,5.269 2874.71,20.603 2858.11,51.269L2858.11,317.586L2774.06,317.586L2774.06,-56.641L2853.26,-56.641Z" style="fill:rgb(156,158,159);fill-rule:nonzero;"/>
    </g>
    <path d="M0.551,-0.402L322.048,0.277L634.728,544.244L319.335,1090.25L0.551,1090.25L0.551,950.82L239.457,950.82L473.64,544.236L240.86,138.906L-0.06,138.363L0.551,-0.402Z" style="fill:rgb(212,0,80);stroke:black;stroke-width:1px;"/>
</svg>
